<svg preserveAspectRatio="xMidYMid meet" data-bbox="6.76 4.8 246.5 56.4" viewBox="6.76 4.8 246.5 56.4" xmlns="http://www.w3.org/2000/svg" data-type="color" role="presentation" aria-hidden="true">
    <g>
        <path d="M155.8 60.57v-5.4h2.68v5.4h-2.68z" fill="#ffffff" data-color="1"></path>
        <path d="M183.29 41.96c-.11-1.19-.41-2.24-.92-3.15s-1.16-1.66-1.97-2.25-1.74-1.05-2.81-1.36c-1.07-.31-2.22-.47-3.44-.47-1.68 0-3.17.34-4.47 1.02s-2.38 1.59-3.26 2.73c-.88 1.14-1.54 2.43-2 3.88s-.68 2.94-.68 4.48c0 1.82.21 3.49.63 5.03.42 1.54 1.07 2.88 1.94 4.01a9.029 9.029 0 0 0 3.26 2.65c1.3.63 2.82.94 4.57.94 1.26 0 2.43-.21 3.49-.63 1.07-.42 2.01-1 2.84-1.73a8.88 8.88 0 0 0 2.02-2.65c.53-1.03.88-2.16 1.05-3.38h2c-.21 1.61-.66 3.04-1.34 4.3s-1.52 2.32-2.52 3.17c-1 .86-2.14 1.51-3.41 1.97-1.28.45-2.65.68-4.12.68-2.21 0-4.09-.39-5.65-1.18s-2.84-1.84-3.84-3.17c-1-1.33-1.73-2.86-2.21-4.59-.47-1.73-.71-3.54-.71-5.43s.27-3.67.81-5.35c.54-1.68 1.34-3.15 2.39-4.4 1.05-1.26 2.35-2.25 3.89-2.99 1.54-.73 3.31-1.1 5.31-1.1 1.47 0 2.85.18 4.12.55 1.28.37 2.42.92 3.41 1.65 1 .73 1.81 1.66 2.44 2.78s1.02 2.45 1.16 3.98h-1.98v.01z" fill="#ffffff" data-color="1"></path>
        <path d="M188.43 47.09c0-1.92.27-3.73.81-5.43.54-1.69 1.34-3.19 2.39-4.48s2.35-2.31 3.89-3.07c1.54-.75 3.31-1.13 5.31-1.13s3.76.38 5.31 1.13c1.54.75 2.84 1.77 3.89 3.07 1.05 1.29 1.85 2.79 2.39 4.48.54 1.7.81 3.5.81 5.43 0 1.92-.27 3.74-.81 5.45s-1.34 3.21-2.39 4.48c-1.05 1.28-2.35 2.29-3.89 3.04s-3.31 1.13-5.31 1.13-3.77-.38-5.31-1.13-2.84-1.76-3.89-3.04c-1.05-1.28-1.85-2.77-2.39-4.48s-.81-3.52-.81-5.45zm2 0c0 1.61.23 3.15.68 4.64.45 1.49 1.12 2.8 2 3.96a9.645 9.645 0 0 0 3.26 2.75c1.3.68 2.78 1.02 4.47 1.02 1.68 0 3.17-.34 4.47-1.02s2.38-1.6 3.26-2.75c.88-1.15 1.54-2.47 2-3.96.45-1.49.68-3.03.68-4.64s-.23-3.15-.68-4.64c-.46-1.48-1.12-2.8-2-3.96a9.742 9.742 0 0 0-3.26-2.75c-1.3-.68-2.78-1.02-4.47-1.02-1.68 0-3.17.34-4.47 1.02s-2.38 1.6-3.26 2.75c-.88 1.15-1.54 2.47-2 3.96a15.98 15.98 0 0 0-.68 4.64z" fill="#ffffff" data-color="1"></path>
        <path d="M217.43 33.62h2v5.5h.1c.21-.84.58-1.63 1.1-2.39a8.54 8.54 0 0 1 1.92-1.97c.75-.56 1.59-1 2.52-1.31.93-.31 1.9-.47 2.92-.47 1.3 0 2.42.17 3.36.5.95.33 1.75.77 2.42 1.31s1.19 1.15 1.58 1.83c.38.68.65 1.37.79 2.07h.1c.81-1.85 1.88-3.27 3.23-4.25s3.13-1.47 5.33-1.47c1.23 0 2.35.18 3.39.55 1.03.37 1.93.93 2.68 1.68s1.34 1.7 1.76 2.86c.42 1.15.63 2.52.63 4.09v18.4h-2V42.11c0-1.71-.26-3.06-.79-4.04s-1.15-1.72-1.86-2.23c-.72-.51-1.44-.82-2.15-.94-.72-.12-1.27-.18-1.65-.18-1.23 0-2.36.21-3.39.63-1.03.42-1.93 1.05-2.68 1.89s-1.34 1.88-1.76 3.12c-.42 1.24-.63 2.67-.63 4.27v15.94h-2V42.11c0-1.68-.25-3.01-.76-4.01s-1.1-1.74-1.79-2.23c-.68-.49-1.38-.8-2.1-.94s-1.29-.21-1.71-.21c-.95 0-1.93.19-2.94.58-1.02.38-1.94.98-2.78 1.78s-1.52 1.83-2.05 3.09-.79 2.74-.79 4.46v15.94h-2V33.62z" fill="#ffffff" data-color="1"></path>
        <path d="M89.32 5.85c-2.86 1.5-3.93 4.03-3.93 11.02 0 0 1.45-1.4 3.6-2.18 1.57-.57 2.9-1.43 3.68-2 2.42-1.77 2.79-4.05 2.79-7.89 0 .01-3.94-.1-6.14 1.05z" fill="#ffcc00" data-color="2"></path>
        <path d="M72.36 7.49c-2.33 2.06-3.01 5.33-3.01 5.33l-7.72 29.92-6.43-24.48c-.63-2.6-1.75-5.82-3.54-8-2.27-2.77-6.89-2.95-7.38-2.95s-5.11.17-7.38 2.95c-1.78 2.18-2.91 5.39-3.54 8l-6.42 24.49-7.72-29.92s-.68-3.28-3.01-5.33c-3.78-3.33-9.45-2.62-9.45-2.62L21.55 60.8s4.88.35 7.32-.89c3.21-1.63 4.73-2.9 6.67-10.5 1.73-6.78 6.57-26.71 7.02-28.12.22-.7.51-2.38 1.74-2.38 1.26 0 1.52 1.67 1.74 2.38.44 1.42 5.29 21.34 7.02 28.12 1.94 7.61 3.47 8.87 6.67 10.5 2.44 1.24 7.32.89 7.32.89L81.81 4.87s-5.67-.71-9.45 2.62z" fill="#ffffff" data-color="1"></path>
        <path d="M95.45 14s-.92 1.43-3.04 2.61c-1.36.76-2.66 1.27-4.05 1.94-2.34 1.12-2.97 2.37-2.97 4.28v37.96s3.73.47 6.17-.77c3.14-1.6 3.86-3.15 3.89-10.1V14z" fill="#ffffff" data-color="1"></path>
        <path d="M132.32 32.96l18.76-27.91s-7.92-1.35-11.84 2.22c-2.51 2.28-5.31 6.39-5.31 6.39l-6.9 9.95c-.33.52-.77 1.08-1.47 1.08s-1.14-.56-1.47-1.08l-6.9-9.95s-2.81-4.11-5.31-6.39c-3.92-3.57-11.84-2.22-11.84-2.22l18.76 27.91-18.71 27.82s8.25 1.04 12.17-2.53c2.51-2.28 4.94-6 4.94-6l6.9-9.95c.33-.52.77-1.08 1.47-1.08s1.14.56 1.47 1.08l6.9 9.95s2.57 3.71 5.08 6c3.92 3.57 12.03 2.53 12.03 2.53l-18.73-27.82z" fill="#ffffff" data-color="1"></path>
    </g>
</svg>